PathFileType        4      (X/Y/Z)      C:\Users\u0101727\OneDrive - KU Leuven\reference_data\TRC\gait_65.trc         																																																																																																																																																																																		
DataRate	CameraRate	NumFrames	NumMarkers	Units	OrigDataRate	OrigDataStartFrame	OrigNumFrames																																																																																																																																																																											
100	100	10	59	m	100	335	446																																																																																																																																																																											
Frame#	Time	LASI			RASI			LKNE			LTHI1			LTHI2			LTHI3			LANK			LANK_med			LTIB1			LTIB2			foot_l6			foot_l7			foot_l9			RKNE			RTHI3			RANK			RTIB1			RTIB2			RTIB3			Foot_r3			Foot_r5			Foot_r6			Foot_r7			Foot_r9			RSHO			LSHO			CLAV			hum_l2			rad_l2			LW1			LW2			LH			hum_r2			RELB			rad_r2			RW2			RW1			RH			Foot_r4			LKNE_med			foot_l3			LTIB3			foot_l5			foot_l10			RTHI2			RTHI1			foot_l8			RANK_med			foot_l1			Foot_r1			Foot_r8			foot_l2			RPSI			LPSI			foot_l4			Foot_r2			RKNE_med			LELB			Foot_r10		
		X1	Y1	Z1	X2	Y2	Z2	X3	Y3	Z3	X4	Y4	Z4	X5	Y5	Z5	X6	Y6	Z6	X7	Y7	Z7	X8	Y8	Z8	X9	Y9	Z9	X10	Y10	Z10	X11	Y11	Z11	X12	Y12	Z12	X13	Y13	Z13	X14	Y14	Z14	X15	Y15	Z15	X16	Y16	Z16	X17	Y17	Z17	X18	Y18	Z18	X19	Y19	Z19	X20	Y20	Z20	X21	Y21	Z21	X22	Y22	Z22	X23	Y23	Z23	X24	Y24	Z24	X25	Y25	Z25	X26	Y26	Z26	X27	Y27	Z27	X28	Y28	Z28	X29	Y29	Z29	X30	Y30	Z30	X31	Y31	Z31	X32	Y32	Z32	X33	Y33	Z33	X34	Y34	Z34	X35	Y35	Z35	X36	Y36	Z36	X37	Y37	Z37	X38	Y38	Z38	X39	Y39	Z39	X40	Y40	Z40	X41	Y41	Z41	X42	Y42	Z42	X43	Y43	Z43	X44	Y44	Z44	X45	Y45	Z45	X46	Y46	Z46	X47	Y47	Z47	X48	Y48	Z48	X49	Y49	Z49	X50	Y50	Z50	X51	Y51	Z51	X52	Y52	Z52	X53	Y53	Z53	X54	Y54	Z54	X55	Y55	Z55	X56	Y56	Z56	X57	Y57	Z57	X58	Y58	Z58	X59	Y59	Z59
335	3.35	2.1529	0.89927	-0.2957	2.1714	0.92268	-0.041438	NaN	NaN	NaN	NaN	NaN	NaN	NaN	NaN	NaN	2.1975	0.58542	-0.3178	NaN	NaN	NaN	NaN	NaN	NaN	NaN	NaN	NaN	1.9702	0.32041	-0.32701	1.847	0.060768	-0.25933	1.8622	0.035451	-0.22528	1.8235	0.11992	-0.2135	2.2043	0.43015	-0.050405	2.1626	0.68319	0.034941	2.1154	0.044863	-0.095213	2.1804	0.24938	-0.053385	2.1081	0.24702	-0.042182	2.1451	0.20599	-0.052461	2.1262	0.02089	-0.10155	2.2235	0.0010043	-0.066314	2.2659	0.013654	-0.10931	2.2994	0.011047	-0.1477	2.2142	0.030793	-0.16412	2.0574	1.3484	0.025293	2.0751	1.3613	-0.32705	2.1448	1.3331	-0.16452	2.0632	1.2036	-0.38026	2.1297	0.94956	-0.40866	2.2072	0.84421	-0.37793	NaN	NaN	NaN	2.2151	0.7877	-0.42214	2.0291	1.1955	0.053056	NaN	NaN	NaN	2.0446	0.90644	0.11653	2.0355	0.82181	0.13539	2.0998	0.82326	0.11191	2.0783	0.77635	0.15066	2.1567	0.0048352	-0.091827	NaN	NaN	NaN	NaN	NaN	NaN	NaN	NaN	NaN	1.8325	0.070205	-0.3027	NaN	NaN	NaN	NaN	NaN	NaN	NaN	NaN	NaN	1.8417	0.062367	-0.21432	2.1342	0.068932	-0.1765	1.7727	0.23703	-0.26196	NaN	NaN	NaN	NaN	NaN	NaN	1.7431	0.22259	-0.2638	NaN	NaN	NaN	NaN	NaN	NaN	NaN	NaN	NaN	2.0633	0.010454	-0.13379	NaN	NaN	NaN	NaN	NaN	NaN	NaN	NaN	NaN
336	3.36	2.1642	0.90253	-0.29515	2.1837	0.92368	-0.040626	NaN	NaN	NaN	NaN	NaN	NaN	NaN	NaN	NaN	2.2173	0.59053	-0.31629	NaN	NaN	NaN	NaN	NaN	NaN	NaN	NaN	NaN	NaN	NaN	NaN	1.8833	0.059395	-0.2567	1.8994	0.034765	-0.22258	1.857	0.11772	-0.2109	2.2077	0.42944	-0.050414	2.1722	0.68338	0.034832	2.1156	0.045105	-0.095317	2.1813	0.2492	-0.052983	2.1088	0.24801	-0.042936	2.1454	0.20623	-0.052305	2.1262	0.02099	-0.10152	2.2235	9.59E-04	-0.066335	2.2659	0.013612	-0.10939	2.2993	0.010955	-0.14771	2.2146	0.031054	-0.1642	2.0716	1.3508	0.026514	2.0859	1.3633	-0.32592	2.1571	1.3352	-0.16401	2.0738	1.2056	-0.37899	2.1365	0.94979	-0.40824	2.2104	0.84109	-0.37898	NaN	NaN	NaN	2.2154	0.78407	-0.42331	2.044	1.1978	0.054694	NaN	NaN	NaN	2.064	0.90905	0.11785	2.0564	0.82419	0.13694	2.1202	0.82666	0.11201	2.1004	0.77973	0.15141	2.1566	0.0047703	-0.092022	NaN	NaN	NaN	NaN	NaN	NaN	NaN	NaN	NaN	1.8686	0.068166	-0.30033	NaN	NaN	NaN	NaN	NaN	NaN	NaN	NaN	NaN	1.8775	0.060646	-0.21183	2.1343	0.068924	-0.17669	1.8006	0.23152	-0.26008	NaN	NaN	NaN	NaN	NaN	NaN	1.7718	0.21593	-0.26184	NaN	NaN	NaN	NaN	NaN	NaN	NaN	NaN	NaN	2.0633	0.010545	-0.13387	NaN	NaN	NaN	NaN	NaN	NaN	NaN	NaN	NaN
337	3.37	2.1756	0.9055	-0.29433	2.1959	0.92457	-0.039553	NaN	NaN	NaN	NaN	NaN	NaN	NaN	NaN	NaN	2.2369	0.59602	-0.31506	NaN	NaN	NaN	NaN	NaN	NaN	NaN	NaN	NaN	NaN	NaN	NaN	1.9213	0.057465	-0.2541	1.9382	0.033195	-0.21975	1.8911	0.1136	-0.2087	2.2107	0.42873	-0.050266	2.1813	0.68339	0.034503	2.1154	0.044924	-0.095506	2.1818	0.24916	-0.052622	2.1092	0.24888	-0.04349	2.1454	0.20662	-0.05193	2.1265	0.021344	-0.10157	2.2234	9.43E-04	-0.066348	2.2659	0.013615	-0.10934	2.2993	0.010869	-0.14775	2.2146	0.031076	-0.16416	2.0856	1.3533	0.027704	2.0967	1.3651	-0.32485	2.1694	1.3371	-0.16347	2.0842	1.2075	-0.37761	2.1431	0.95017	-0.40789	2.2133	0.83831	-0.38009	NaN	NaN	NaN	2.2155	0.78105	-0.42455	2.059	1.2001	0.056606	NaN	NaN	NaN	2.0834	0.91178	0.11913	2.0774	0.82669	0.13828	2.1405	0.83023	0.11204	2.1225	0.7832	0.15221	2.1566	0.0047607	-0.092056	NaN	NaN	NaN	NaN	NaN	NaN	NaN	NaN	NaN	1.9064	0.065308	-0.29787	NaN	NaN	NaN	NaN	NaN	NaN	NaN	NaN	NaN	1.9149	0.058152	-0.20905	2.1344	0.069021	-0.17665	1.8293	0.22477	-0.25779	NaN	NaN	NaN	NaN	NaN	NaN	1.8011	0.20784	-0.26007	NaN	NaN	NaN	NaN	NaN	NaN	NaN	NaN	NaN	2.0634	0.010893	-0.13389	NaN	NaN	NaN	NaN	NaN	NaN	NaN	NaN	NaN
338	3.38	2.1872	0.90831	-0.29341	2.2081	0.92529	-0.038493	NaN	NaN	NaN	NaN	NaN	NaN	NaN	NaN	NaN	2.256	0.60161	-0.31403	NaN	NaN	NaN	NaN	NaN	NaN	NaN	NaN	NaN	NaN	NaN	NaN	1.9605	0.054634	-0.25179	1.9786	0.031583	-0.21722	1.9268	0.10917	-0.20604	2.2134	0.42803	-0.05022	2.1908	0.68341	0.03455	2.1156	0.045249	-0.095619	2.1821	0.24903	-0.052066	2.1096	0.24933	-0.043711	2.1457	0.20684	-0.051438	2.1262	0.020909	-0.1017	2.2234	9.27E-04	-0.066212	2.2661	0.013624	-0.10929	2.2992	0.010761	-0.14781	2.2146	0.030776	-0.16429	2.0995	1.3557	0.028807	2.1076	1.367	-0.3238	2.1816	1.3389	-0.16294	2.0947	1.2093	-0.37638	2.1493	0.9506	-0.40763	2.2159	0.83605	-0.38119	NaN	NaN	NaN	2.2154	0.77842	-0.42586	2.0738	1.2023	0.05845	NaN	NaN	NaN	2.1028	0.9146	0.1204	2.0983	0.82944	0.13967	2.161	0.83394	0.11212	2.1447	0.78689	0.15278	2.1567	0.0047913	-0.092082	NaN	NaN	NaN	NaN	NaN	NaN	NaN	NaN	NaN	1.9452	0.061885	-0.29541	NaN	NaN	NaN	NaN	NaN	NaN	NaN	NaN	NaN	1.9539	0.055025	-0.20659	2.1345	0.069145	-0.17669	1.8586	0.21652	-0.25586	NaN	NaN	NaN	NaN	NaN	NaN	1.8313	0.19742	-0.25777	NaN	NaN	NaN	NaN	NaN	NaN	NaN	NaN	NaN	2.0633	0.010815	-0.134	NaN	NaN	NaN	NaN	NaN	NaN	NaN	NaN	NaN
339	3.39	2.1989	0.91083	-0.29212	2.22	0.92585	-0.037278	NaN	NaN	NaN	NaN	NaN	NaN	NaN	NaN	NaN	2.2745	0.60711	-0.31331	NaN	NaN	NaN	NaN	NaN	NaN	NaN	NaN	NaN	NaN	NaN	NaN	2.0001	0.051062	-0.24921	2.0203	0.029395	-0.21494	1.9639	0.1034	-0.20372	2.2161	0.4276	-0.049779	2.1997	0.68333	0.034478	2.1157	0.045397	-0.09571	2.1829	0.24886	-0.051328	2.1103	0.24939	-0.043355	2.1459	0.20643	-0.051214	2.1262	0.020957	-0.10186	2.2234	0.0010332	-0.066042	2.266	0.013519	-0.10929	2.2994	0.010816	-0.14766	2.2147	0.030831	-0.16424	2.1132	1.3578	0.029754	2.1183	1.3683	-0.32266	2.1938	1.3406	-0.16239	2.1052	1.2108	-0.37521	2.1552	0.95101	-0.40748	2.2184	0.83379	-0.38237	NaN	NaN	NaN	2.2151	0.77619	-0.42716	2.0887	1.2045	0.060229	NaN	NaN	NaN	2.122	0.91739	0.12157	2.1197	0.83232	0.14115	2.1815	0.8377	0.11216	2.167	0.79064	0.15335	2.1567	0.004848	-0.092117	NaN	NaN	NaN	NaN	NaN	NaN	NaN	NaN	NaN	1.9863	0.059198	-0.29358	NaN	NaN	NaN	NaN	NaN	NaN	NaN	NaN	NaN	1.9942	0.051404	-0.20432	2.1348	0.069276	-0.1767	1.8886	0.20651	-0.25352	NaN	NaN	NaN	NaN	NaN	NaN	1.8624	0.18584	-0.25561	NaN	NaN	NaN	NaN	NaN	NaN	NaN	NaN	NaN	2.0635	0.011298	-0.13402	NaN	NaN	NaN	NaN	NaN	NaN	NaN	NaN	NaN
340	3.4	2.2108	0.9129	-0.29092	2.2319	0.92617	-0.035891	NaN	NaN	NaN	NaN	NaN	NaN	NaN	NaN	NaN	2.2924	0.61252	-0.31284	NaN	NaN	NaN	NaN	NaN	NaN	NaN	NaN	NaN	NaN	NaN	NaN	2.0428	0.048524	-0.2477	2.0632	0.027072	-0.21269	2.0018	0.09716	-0.20176	2.2184	0.42711	-0.049519	2.2085	0.68315	0.034606	2.1157	0.045582	-0.095735	2.1844	0.24869	-0.050877	2.1117	0.24945	-0.042694	2.1471	0.20648	-0.051107	2.1263	0.021068	-0.10185	2.2236	0.0010066	-0.066117	2.2661	0.013528	-0.10931	2.2995	0.010803	-0.14766	2.2147	0.030963	-0.1641	2.1269	1.3599	0.03087	2.1294	1.3698	-0.32172	NaN	NaN	NaN	2.1153	1.2121	-0.37407	2.1609	0.95124	-0.40747	2.2209	0.83191	-0.38353	NaN	NaN	NaN	2.2149	0.77426	-0.42856	2.1034	1.2064	0.062061	NaN	NaN	NaN	2.1411	0.92013	0.12287	2.1409	0.8352	0.14265	2.2019	0.8415	0.11238	2.1891	0.79427	0.15383	2.1567	0.0048767	-0.092215	NaN	NaN	NaN	NaN	NaN	NaN	NaN	NaN	NaN	2.0261	0.05351	-0.29135	NaN	NaN	NaN	NaN	NaN	NaN	NaN	NaN	NaN	2.0354	0.047377	-0.20234	2.1355	0.069663	-0.1772	1.92	0.19548	-0.25158	NaN	NaN	NaN	NaN	NaN	NaN	1.8949	0.17296	-0.25354	NaN	NaN	NaN	NaN	NaN	NaN	NaN	NaN	NaN	2.0635	0.011588	-0.13406	NaN	NaN	NaN	NaN	NaN	NaN	NaN	NaN	NaN
341	3.41	2.2228	0.91476	-0.28957	2.2435	0.92644	-0.034527	NaN	NaN	NaN	NaN	NaN	NaN	NaN	NaN	NaN	2.3097	0.61769	-0.31251	NaN	NaN	NaN	NaN	NaN	NaN	NaN	NaN	NaN	NaN	NaN	NaN	2.0849	0.044995	-0.24601	2.1075	0.025558	-0.21167	2.0414	0.09069	-0.20059	2.2211	0.42679	-0.04933	2.217	0.68264	0.034578	2.1156	0.045682	-0.095883	2.1861	0.24855	-0.051069	2.1132	0.24959	-0.042259	2.1485	0.20641	-0.051179	2.1263	0.02113	-0.10197	2.2235	9.85E-04	-0.066023	2.2663	0.013524	-0.10919	2.2995	0.010812	-0.14764	2.2149	0.03111	-0.1641	2.1408	1.3619	0.032087	2.1404	1.3707	-0.3205	NaN	NaN	NaN	2.1253	1.2131	-0.37293	2.1663	0.95131	-0.40764	2.2233	0.83001	-0.38465	NaN	NaN	NaN	2.2147	0.77271	-0.42984	2.1182	1.2083	0.063888	NaN	NaN	NaN	2.1604	0.92283	0.12423	2.1619	0.8379	0.14389	2.2223	0.84533	0.11261	2.2111	0.79788	0.15426	2.1568	0.0049326	-0.092321	NaN	NaN	NaN	NaN	NaN	NaN	NaN	NaN	NaN	2.0677	0.04929	-0.28946	NaN	NaN	NaN	NaN	NaN	NaN	NaN	NaN	NaN	2.0783	0.043208	-0.20097	NaN	NaN	NaN	1.9517	0.18268	-0.24915	NaN	NaN	NaN	NaN	NaN	NaN	1.9285	0.15918	-0.25125	NaN	NaN	NaN	NaN	NaN	NaN	NaN	NaN	NaN	2.0635	0.012039	-0.13402	NaN	NaN	NaN	NaN	NaN	NaN	NaN	NaN	NaN
342	3.42	2.2349	0.91635	-0.28811	2.2551	0.9265	-0.033061	NaN	NaN	NaN	NaN	NaN	NaN	NaN	NaN	NaN	NaN	NaN	NaN	NaN	NaN	NaN	NaN	NaN	NaN	NaN	NaN	NaN	NaN	NaN	NaN	2.1269	0.040875	-0.2446	2.1512	0.023024	-0.2102	2.0805	0.083464	-0.19844	2.2235	0.42628	-0.049063	2.2254	0.68203	0.034426	2.1157	0.045939	-0.096117	2.1878	0.24824	-0.05159	2.1155	0.24998	-0.04255	2.1503	0.20683	-0.051241	2.1265	0.021305	-0.10214	2.2235	9.71E-04	-0.066022	2.2662	0.01341	-0.10926	2.2996	0.010659	-0.14777	2.2149	0.030921	-0.16418	2.1544	1.3633	0.033305	2.1515	1.3714	-0.31934	NaN	NaN	NaN	2.135	1.2139	-0.37189	2.1714	0.95117	-0.40779	2.2257	0.82818	-0.38583	NaN	NaN	NaN	2.2145	0.77108	-0.43113	2.1327	1.2098	0.065815	NaN	NaN	NaN	2.1792	0.92523	0.12551	2.1825	0.84022	0.14496	2.2426	0.84899	0.11295	2.2332	0.80142	0.15483	2.1567	0.0049649	-0.092526	NaN	NaN	NaN	NaN	NaN	NaN	NaN	NaN	NaN	2.1099	0.044702	-0.28805	NaN	NaN	NaN	NaN	NaN	NaN	NaN	NaN	NaN	2.1212	0.039596	-0.19924	NaN	NaN	NaN	1.9848	0.16969	-0.24628	NaN	NaN	NaN	NaN	NaN	NaN	1.9633	0.1442	-0.24923	NaN	NaN	NaN	NaN	NaN	NaN	NaN	NaN	NaN	2.0637	0.012599	-0.13403	NaN	NaN	NaN	NaN	NaN	NaN	NaN	NaN	NaN
343	3.43	2.2471	0.91759	-0.28679	2.2667	0.92621	-0.031649	NaN	NaN	NaN	NaN	NaN	NaN	NaN	NaN	NaN	NaN	NaN	NaN	NaN	NaN	NaN	NaN	NaN	NaN	NaN	NaN	NaN	NaN	NaN	NaN	2.1707	0.037398	-0.24407	2.1961	0.02087	-0.20972	2.1213	0.076188	-0.19732	2.2263	0.42593	-0.048778	2.2332	0.68118	0.034401	2.1158	0.046247	-0.096164	2.1897	0.24809	-0.05209	2.1177	0.2504	-0.042224	2.152	0.20695	-0.051512	2.1266	0.021465	-0.1023	2.2233	8.10E-04	-0.066116	2.2665	0.013397	-0.10916	2.2998	0.01063	-0.14757	2.2151	0.030827	-0.16424	2.168	1.3645	0.034101	2.1625	1.3717	-0.31827	NaN	NaN	NaN	2.1445	1.2143	-0.37088	2.1766	0.95095	-0.40794	2.2282	0.82639	-0.38707	NaN	NaN	NaN	2.2146	0.76979	-0.43241	2.1473	1.2111	0.067518	NaN	NaN	NaN	2.198	0.92755	0.1269	2.2034	0.84262	0.14629	2.263	0.85263	0.11327	2.2551	0.80482	0.15529	2.1568	0.005066	-0.092694	NaN	NaN	NaN	NaN	NaN	NaN	NaN	NaN	NaN	2.1526	0.040009	-0.28718	NaN	NaN	NaN	NaN	NaN	NaN	NaN	NaN	NaN	2.1642	0.034636	-0.19846	NaN	NaN	NaN	2.0203	0.15597	-0.24514	NaN	NaN	NaN	NaN	NaN	NaN	NaN	NaN	NaN	NaN	NaN	NaN	NaN	NaN	NaN	NaN	NaN	NaN	2.0636	0.013328	-0.13369	NaN	NaN	NaN	NaN	NaN	NaN	NaN	NaN	NaN
344	3.44	NaN	NaN	NaN	2.2782	0.92582	-0.030185	NaN	NaN	NaN	NaN	NaN	NaN	NaN	NaN	NaN	NaN	NaN	NaN	NaN	NaN	NaN	NaN	NaN	NaN	NaN	NaN	NaN	NaN	NaN	NaN	2.2144	0.033991	-0.24371	2.2411	0.018992	-0.20959	2.1618	0.068431	-0.19587	2.2285	0.42551	-0.048476	2.2416	0.68045	0.034252	2.116	0.046575	-0.096251	2.1912	0.24801	-0.052129	2.1191	0.25066	-0.041993	2.1533	0.20718	-0.051615	2.1268	0.02172	-0.10255	2.2234	8.50E-04	-0.066106	2.2665	0.013379	-0.10915	2.2999	0.010565	-0.14769	2.2153	0.030874	-0.16436	2.1817	1.3653	0.035027	2.1737	1.3718	-0.31713	NaN	NaN	NaN	2.1539	1.2144	-0.36988	2.1818	0.95066	-0.40817	2.2307	0.82464	-0.38836	NaN	NaN	NaN	2.2146	0.7685	-0.43367	2.162	1.2121	0.069389	NaN	NaN	NaN	2.2168	0.92963	0.12825	2.2243	0.84482	0.14751	2.2831	0.8562	0.11374	2.2768	0.80806	0.15568	2.1569	0.0052324	-0.092833	NaN	NaN	NaN	NaN	NaN	NaN	NaN	NaN	NaN	2.1958	0.035659	-0.28666	NaN	NaN	NaN	NaN	NaN	NaN	NaN	NaN	NaN	2.2089	0.03092	-0.19808	NaN	NaN	NaN	2.056	0.14179	-0.24256	NaN	NaN	NaN	NaN	NaN	NaN	NaN	NaN	NaN	NaN	NaN	NaN	NaN	NaN	NaN	NaN	NaN	NaN	2.0636	0.013791	-0.13384	NaN	NaN	NaN	NaN	NaN	NaN	NaN	NaN	NaN
